HIERARCHY
ROOT Hips
{
    OFFSET 0.000000 0.000000 0.000000
    CHANNELS 6 Xposition Yposition Zposition Zrotation Xrotation Yrotation
    JOINT Spine
    {
        OFFSET -0.000000 14.517291 0.000000
        CHANNELS 3 Zrotation Xrotation Yrotation
        JOINT Spine1
        {
            OFFSET -0.000000 37.558300 0.000000
            CHANNELS 3 Zrotation Xrotation Yrotation
            JOINT Neck
            {
                OFFSET -0.000000 37.404057 3.400369
                CHANNELS 3 Zrotation Xrotation Yrotation
                JOINT Head
                {
                    OFFSET -0.000000 24.785618 -3.540803
                    CHANNELS 3 Zrotation Xrotation Yrotation
                    End Site
                    {
                        OFFSET -0.000000 35.408028 0.000000
                    }
                }
            }
            JOINT LeftShoulder
            {
                OFFSET 6.992933 33.973492 -0.192664
                CHANNELS 3 Zrotation Xrotation Yrotation
                JOINT LeftArm
                {
                    OFFSET 21.527611 0.000000 0.000000
                    CHANNELS 3 Zrotation Xrotation Yrotation
                    JOINT LeftForeArm
                    {
                        OFFSET 56.353916 0.000000 0.000000
                        CHANNELS 3 Zrotation Xrotation Yrotation
                        JOINT LeftHand
                        {
                            OFFSET 47.774071 0.000000 0.000000
                            CHANNELS 3 Zrotation Xrotation Yrotation
                            End Site
                            {
                                OFFSET 26.556021 0.000000 0.000000
                            }
                        }
                    }
                }
            }
            JOINT RightShoulder
            {
                OFFSET -7.065357 33.973492 -0.192664
                CHANNELS 3 Zrotation Xrotation Yrotation
                JOINT RightArm
                {
                    OFFSET -21.527611 0.000000 0.000000
                    CHANNELS 3 Zrotation Xrotation Yrotation
                    JOINT RightForeArm
                    {
                        OFFSET -56.353916 0.000000 0.000000
                        CHANNELS 3 Zrotation Xrotation Yrotation
                        JOINT RightHand
                        {
                            OFFSET -47.774071 0.000000 0.000000
                            CHANNELS 3 Zrotation Xrotation Yrotation
                            End Site
                            {
                                OFFSET -26.556021 0.000000 0.000000
                            }
                        }
                    }
                }
            }
        }
    }
    JOINT LeftUpLeg
    {
        OFFSET 17.704014 0.000000 0.000000
        CHANNELS 3 Zrotation Xrotation Yrotation
        JOINT LeftLeg
        {
            OFFSET -0.000000 -81.181816 0.000000
            CHANNELS 3 Zrotation Xrotation Yrotation
            JOINT LeftFoot
            {
                OFFSET -0.000000 -62.821102 0.000000
                CHANNELS 3 Zrotation Xrotation Yrotation
                JOINT LeftToeBase
                {
                    OFFSET -0.000000 -11.507608 26.556021
                    CHANNELS 3 Zrotation Xrotation Yrotation
                    End Site
                    {
                        OFFSET -0.000000 0.000000 7.081605
                    }
                }
            }
        }
    }
    JOINT RightUpLeg
    {
        OFFSET -17.704014 0.000000 0.000000
        CHANNELS 3 Zrotation Xrotation Yrotation
        JOINT RightLeg
        {
            OFFSET -0.000000 -81.181816 0.000000
            CHANNELS 3 Zrotation Xrotation Yrotation
            JOINT RightFoot
            {
                OFFSET -0.000000 -62.821102 0.000000
                CHANNELS 3 Zrotation Xrotation Yrotation
                JOINT RightToeBase
                {
                    OFFSET -0.000000 -11.507608 26.556021
                    CHANNELS 3 Zrotation Xrotation Yrotation
                    End Site
                    {
                        OFFSET -0.000000 0.000000 7.081605
                    }
                }
            }
        }
    }
}
MOTION
Frames:    4
Frame Time:    0.008333
28.326910    144.628006    49.919399    4.525927    2.882368    -62.357616    -0.490360    0.426735    -0.797960    2.542340    -1.102143    -0.241760    22.060228    9.134591    20.831289    -18.783529    1.761109    17.926804    18.107525    -2.771863    -16.529329    1.362602    -20.456587    -19.366016    3.109156    0.535775    -94.967384    1.202353    3.615240    -28.948702    -5.957610    -1.882573    -6.821817    30.119011    -25.778606    41.610310    15.750718    -19.462955    111.283180    24.097427    -33.556007    34.904678    37.981525    -23.893816    31.764618    -33.731041    44.977535    7.973520    2.162973    -15.252852    44.256725    0.000000    0.000000    0.000000    -31.668388    -14.454234    -17.646023    4.075245    34.028580    -6.142295    20.103199    -10.186491    7.242116    0.000000    0.000000    0.000000    
28.360294    144.622879    49.903656    4.529534    2.879903    -62.377285    -0.470499    0.431806    -0.802068    2.448721    -1.081686    -0.244348    22.137545    9.111495    20.860880    -18.819624    1.750955    17.941751    17.961418    -2.156882    -16.754974    1.210101    -20.403999    -19.440266    3.355115    0.036033    -94.905785    1.003906    3.431858    -28.978714    -5.900770    -1.862694    -6.808877    30.048798    -25.725727    41.598190    15.715447    -19.597952    111.256592    24.226252    -33.567513    34.989304    37.980633    -23.895376    31.790447    -33.710304    44.976940    7.960247    2.167426    -15.254546    44.252888    0.000000    0.000000    0.000000    -31.673405    -14.476250    -17.657475    4.069118    34.023170    -6.133493    20.099344    -10.189206    7.262845    0.000000    0.000000    0.000000    
28.391420    144.617767    49.887302    4.537360    2.881920    -62.394707    -0.452129    0.424624    -0.802194    2.357391    -1.064676    -0.245706    22.232443    9.121223    20.888062    -18.886786    1.727301    17.953676    17.707668    -1.686709    -16.861101    1.083772    -20.459833    -19.712696    3.442480    -0.098297    -94.795074    0.835666    3.429301    -28.966015    -5.825503    -1.841289    -6.791175    29.942272    -25.648232    41.574009    15.663179    -19.779007    111.227600    24.350794    -33.596771    35.081261    37.988266    -23.902733    31.813896    -33.704197    44.977364    7.957757    2.173615    -15.239461    44.243908    0.000000    0.000000    0.000000    -31.681435    -14.499612    -17.655136    4.081533    34.022030    -6.121458    20.113317    -10.201591    7.274745    0.000000    0.000000    0.000000    
28.421139    144.615082    49.872471    4.543562    2.886001    -62.408497    -0.432142    0.415933    -0.797954    2.284318    -1.048101    -0.245250    22.307581    9.126004    20.910612    -18.956722    1.722751    17.963863    17.499323    -1.428953    -16.941767    0.788173    -20.167368    -20.027565    3.627251    -0.429193    -94.639435    0.709459    3.321271    -29.029207    -5.772399    -1.807086    -6.774813    29.868736    -25.612078    41.565468    15.633295    -19.894938    111.195763    24.428108    -33.611080    35.164261    37.993809    -23.908178    31.817190    -33.710171    44.967495    7.951358    2.183077    -15.239601    44.261208    0.000000    0.000000    0.000000    -31.682774    -14.516908    -17.672121    4.088025    34.012222    -6.101537    20.085150    -10.223164    7.265107    0.000000    0.000000    0.000000    
